<svg xmlns="http://www.w3.org/2000/svg" width="178" height="114" viewBox="0 0 178 114">
    <g fill="none" fill-rule="evenodd">
        <g fill="#FFF2E4">
            <rect width="144.018" height="97.021" x="16.991" y="16.979" fill-opacity=".4" rx="16"/>
            <rect width="160.2" height="97.021" x="8.9" y="8.894" fill-opacity=".6" rx="16"/>
            <rect width="178" height="97.021" rx="16"/>
        </g>
        <g transform="translate(16.182 16.17)">
            <ellipse cx="32.364" cy="32.34" fill="#FFF" rx="32.364" ry="32.34"/>
            <g fill="#FFF" fill-rule="nonzero" stroke="#FF5058" stroke-width="2">
                <path d="M49.973 49.936v-1.399c0-7.897-6.533-14.331-14.575-14.331h-5.26c-8.042 0-14.574 6.434-14.574 14.331v1.4h34.409zM43.75 23.3c0-5.708-4.763-10.347-10.651-10.347-5.889 0-10.651 4.64-10.651 10.348 0 5.709 4.762 10.347 10.65 10.347 5.889 0 10.651-4.638 10.651-10.347z"/>
            </g>
            <path fill="#FF5058" d="M86.181 35.37l7.6-7.599a.983.983 0 1 1 1.39 1.39l-7.844 7.844a.983.983 0 0 1-1.615.671.982.982 0 0 1-.442-.436l-4.059-4.06a.983.983 0 0 1 1.39-1.39l3.58 3.58zm0-16.17l7.6-7.6a.983.983 0 1 1 1.39 1.39l-7.844 7.845a.983.983 0 0 1-1.615.671.982.982 0 0 1-.442-.437l-4.059-4.06a.983.983 0 0 1 1.39-1.389l3.58 3.58zm18.54-3.838h31.668a1.966 1.966 0 0 1 0 3.93H104.72a1.966 1.966 0 1 1 0-3.93zm0 16.17h38.95a1.966 1.966 0 1 1 0 3.93h-38.95a1.966 1.966 0 1 1 0-3.93zM82.874 49.319h5.778a1.966 1.966 0 0 1 0 3.931h-5.778a1.966 1.966 0 1 1 0-3.93zm13.754 0h5.778a1.966 1.966 0 0 1 0 3.931H96.63a1.966 1.966 0 1 1 0-3.93zm13.755 0h22.769a1.966 1.966 0 0 1 0 3.931h-22.77a1.966 1.966 0 0 1 0-3.93z"/>
        </g>
    </g>
</svg>
